<?xml version="1.0" encoding="utf-8"?>
<!-- Generator: Adobe Illustrator 22.1.0, SVG Export Plug-In . SVG Version: 6.00 Build 0)  -->
<svg version="1.1" id="Layer_1" xmlns="http://www.w3.org/2000/svg" xmlns:xlink="http://www.w3.org/1999/xlink" x="0px" y="0px"
	 viewBox="0 0 150 174" style="enable-background:new 0 0 150 174;" xml:space="preserve">
<style type="text/css">
	.st0{fill:#151920;}
	.st1{fill:#F9F9F9;}
	.st2{fill:#E6C62F;}
	.st3{fill:#17141F;}
	.st4{font-family:'Helvetica-Bold';}
	.st5{font-size:7.8626px;}
</style>
<g>
	<g>
		<path class="st0" d="M42.6,165.5c-3.7,0-6.8-2.9-7-6.5L27.4,41.8c0-0.5-0.5-1-1-1c-3.9,0-7-3.2-7-7V15.5c0-3.9,3.2-7,7-7h97.3
			c3.9,0,7,3.2,7,7v18.2c0,3.9-3.2,7-7,7c-0.5,0-1,0.4-1,1l-8.2,117.2c-0.3,3.7-3.3,6.5-7,6.5H42.6z"/>
		<path class="st1" d="M123.6,11.5c2.2,0,4,1.8,4,4v18.2c0,2.2-1.8,4-4,4c-2.1,0-3.9,1.6-4,3.7l-8.2,117.2c-0.1,2.1-1.9,3.7-4,3.7
			H75H42.6c-2.1,0-3.9-1.6-4-3.7L30.4,41.5c-0.1-2.1-1.9-3.7-4-3.7h0c-2.2,0-4-1.8-4-4V15.5c0-2.2,1.8-4,4-4h1.9H75h46.7H123.6
			 M123.6,5.5h-1.9H75H28.3h-1.9c-5.5,0-10,4.5-10,10v18.2c0,4.9,3.5,9,8.2,9.9l8.1,115.5c0.4,5.2,4.8,9.3,10,9.3H75h32.4
			c5.2,0,9.6-4.1,10-9.3l8.1-115.5c4.6-0.9,8.2-5,8.2-9.9V15.5C133.7,10,129.2,5.5,123.6,5.5L123.6,5.5z"/>
	</g>
	<path class="st2" d="M93,67.6c-9.5,4.3-18-2.1-27.6-5.3c-6.7-1.6-13.2-1-19,1.4c-2.6,1.1-4.2,3.7-4,6.5l5.2,81.4H75h27.4l5.1-80.1
		c0.3-5.2-5.2-8.8-9.7-6.2C96.2,66.1,94.6,66.9,93,67.6z"/>
</g>
<g>
	<text transform="matrix(1 0 0 1 52.1084 135.209)"><tspan x="0" y="0" class="st3 st4 st5">blueberry</tspan><tspan x="0" y="9.4" class="st3 st4 st5">banana</tspan></text>
</g>
</svg>
